<svg viewBox="0 0 100 100" xmlns="http://www.w3.org/2000/svg">
  <defs>
    <!-- Gradient for a more modern look -->
    <linearGradient id="grad" x1="0%" y1="0%" x2="100%" y2="100%">
      <stop offset="0%" style="stop-color:#3B82F6;stop-opacity:1" />
      <stop offset="100%" style="stop-color:#1E40AF;stop-opacity:1" />
    </linearGradient>
  </defs>
  
  <!-- Background circle for better visibility -->
  <circle cx="50" cy="50" r="48" fill="white" stroke="#E5E7EB" stroke-width="1"/>
  
  <!-- Neural Network Symbol - optimized for favicon size -->
  <g fill="url(#grad)" transform="translate(10, 10) scale(0.8)">
    <!-- Central vertical stem -->
    <rect x="45" y="20" width="6" height="50" rx="3" />
    
    <!-- Top branch -->
    <rect x="45" y="20" width="18" height="4" rx="2" transform="rotate(30 48 22)" />
    <circle cx="60" cy="12" r="4" />
    
    <!-- Top-right branch -->
    <rect x="51" y="28" width="15" height="4" rx="2" transform="rotate(45 53 30)" />
    <circle cx="63" cy="20" r="4" />
    
    <!-- Right branch -->
    <rect x="51" y="43" width="18" height="4" rx="2" />
    <circle cx="73" cy="45" r="4" />
    
    <!-- Bottom-right branch -->
    <rect x="51" y="58" width="15" height="4" rx="2" transform="rotate(-45 53 60)" />
    <circle cx="63" cy="70" r="4" />
    
    <!-- Bottom branch -->
    <rect x="45" y="70" width="18" height="4" rx="2" transform="rotate(-30 48 72)" />
    <circle cx="60" cy="82" r="4" />
    
    <!-- Left branch -->
    <rect x="27" y="43" width="18" height="4" rx="2" />
    <circle cx="23" cy="45" r="4" />
    
    <!-- Top-left branch -->
    <rect x="33" y="28" width="15" height="4" rx="2" transform="rotate(-45 35 30)" />
    <circle cx="27" cy="20" r="4" />
    
    <!-- Bottom-left branch -->
    <rect x="33" y="58" width="15" height="4" rx="2" transform="rotate(45 35 60)" />
    <circle cx="27" cy="70" r="4" />
    
    <!-- Center node -->
    <circle cx="48" cy="45" r="6" />
  </g>
</svg>